<svg width="76" height="77" viewBox="0 0 76 77" fill="none" xmlns="http://www.w3.org/2000/svg">
<g clip-path="url(#clip0_1_158)">
<path d="M38 76.0625C58.9868 76.0625 76 59.0493 76 38.0625C76 17.0757 58.9868 0.0625 38 0.0625C17.0132 0.0625 0 17.0757 0 38.0625C0 59.0493 17.0132 76.0625 38 76.0625Z" fill="#FFF3E0"/>
<path d="M55.8415 34.2615V46.4431C55.8415 47.8737 55.1913 49.2609 54.1075 50.1713C45.0472 57.4542 31.7385 57.6709 22.8949 50.2146C21.8112 49.2609 21.1609 47.8737 21.1609 46.4431V34.1748" fill="white"/>
<path d="M14.6583 31.2703L38.9348 42.108L62.3442 31.2703L38.9348 20.4326L14.6583 31.2703Z" fill="#FF9C08"/>
<path d="M38.2844 56.9775C32.4321 56.9775 26.6231 55.0701 22.0712 51.2119C20.684 50.0414 19.9037 48.3074 19.9037 46.4433V34.175C19.9037 33.4381 20.4672 32.8745 21.2042 32.8745C21.9412 32.8745 22.5047 33.4381 22.5047 34.175V46.4433C22.5047 47.5271 22.9816 48.5241 23.7619 49.2177C31.9552 56.1539 44.657 56.1105 53.3272 49.1744C54.1508 48.5241 54.5843 47.5271 54.5843 46.4433V34.2617C54.5843 33.5248 55.1479 32.9612 55.8849 32.9612C56.6218 32.9612 57.1854 33.5248 57.1854 34.2617V46.4433C57.1854 48.3074 56.3617 50.0414 54.9311 51.1685C50.0759 55.0701 44.1368 56.9775 38.2844 56.9775Z" fill="#090909"/>
<path d="M38.9348 43.4085C38.7614 43.4085 38.588 43.3651 38.4146 43.2784L14.1381 32.4407C13.6612 32.2673 13.3578 31.7905 13.3578 31.2703C13.3578 30.75 13.6612 30.2732 14.1381 30.0998L38.4146 19.2621C38.7614 19.0887 39.1515 19.132 39.4983 19.2621L62.9078 30.0998C63.3846 30.3165 63.6447 30.7934 63.6447 31.2703C63.6447 31.7471 63.3413 32.224 62.9078 32.4407L39.4983 43.2784C39.3249 43.3651 39.1082 43.4085 38.9348 43.4085ZM17.8663 31.2703L38.9348 40.6774L59.2663 31.2703L38.9348 21.8631L17.8663 31.2703ZM62.3442 45.0992C61.6072 45.0992 61.0437 44.5356 61.0437 43.7986V35.6053C61.0437 34.8684 61.6072 34.3048 62.3442 34.3048C63.0812 34.3048 63.6447 34.8684 63.6447 35.6053V43.7986C63.6447 44.4922 63.0812 45.0992 62.3442 45.0992Z" fill="#090909"/>
</g>
<defs>
<clipPath id="clip0_1_158">
<rect width="76" height="76" fill="white" transform="translate(0 0.0625)"/>
</clipPath>
</defs>
</svg>
