<svg width="76" height="77" viewBox="0 0 76 77" fill="none" xmlns="http://www.w3.org/2000/svg">
<g clip-path="url(#clip0_1_142)">
<path d="M38 76.0625C58.9868 76.0625 76 59.0493 76 38.0625C76 17.0757 58.9868 0.0625 38 0.0625C17.0132 0.0625 0 17.0757 0 38.0625C0 59.0493 17.0132 76.0625 38 76.0625Z" fill="#FFF3E0"/>
<path d="M53.2006 56.1768C63.2047 47.7817 64.5092 32.8662 56.1141 22.862C47.719 12.8578 32.8034 11.5534 22.7992 19.9485C12.7951 28.3436 11.4906 43.2591 19.8857 53.2633C28.2808 63.2675 43.1964 64.5719 53.2006 56.1768Z" fill="white"/>
<path d="M41.4558 14.7346C36.6809 18.2817 32.9065 23.4659 31.042 29.8324C38.5909 23.5113 47.6859 20.9193 55.0983 22.329L55.0074 22.238C51.7786 17.9179 46.8673 15.1894 41.4558 14.7346Z" fill="#FF9C08"/>
<path d="M20.81 44.9753C22.3561 39.2455 25.8577 33.8339 31.0873 29.7866C27.9496 39.0636 29.7686 54.8889 33.7704 61.3009C28.3134 60.0276 23.3111 57.1626 19.4457 53.0699L18.991 52.6151L20.81 44.9753Z" fill="#FF9C08"/>
<path d="M22.8111 19.9641C17.9452 23.4657 14.8984 28.9227 14.5801 34.88L30.7237 29.4684L22.8111 19.9641Z" fill="#FF9C08"/>
<path d="M61.2829 38.1997C53.7795 32.7427 41.2739 28.65 31.042 29.7869L30.7236 29.4685L53.1883 56.1624L54.5071 54.8436C58.9637 50.478 61.4193 44.4298 61.2829 38.1997Z" fill="#FF9C08"/>
<path d="M31.4968 55.3894C30.9056 55.3894 30.3599 54.9801 30.178 54.389C27.8133 45.8851 27.6769 36.5173 29.7687 29.4231C30.8146 25.7851 32.4972 22.4655 34.7255 19.5096C35.1802 18.9184 36.0443 18.782 36.6355 19.2367C37.2266 19.6915 37.3631 20.5555 36.9083 21.1467C34.8619 23.8297 33.3612 26.8765 32.4063 30.1507C30.4508 36.7901 30.6327 45.5668 32.861 53.6159C33.0429 54.3435 32.6336 55.0711 31.906 55.2985C31.7241 55.3894 31.6332 55.3894 31.4968 55.3894Z" fill="#090909"/>
<path d="M57.1447 21.9651C48.2771 11.4148 32.4972 10.0506 21.9015 18.9182C16.8083 23.1929 13.6705 29.2411 13.0794 35.8804C12.4882 42.5198 14.5346 49.0227 18.8547 54.1159C23.1294 59.2546 29.1775 62.3924 35.8169 62.9381C36.5445 62.9836 37.3176 63.0291 38.0452 63.0291C43.9115 63.0291 49.5504 60.9827 54.0979 57.1628C59.2366 52.8881 62.3744 46.8399 62.9201 40.2006C63.4658 33.5612 61.4649 27.1037 57.1447 21.9651ZM60.1461 35.7895C53.052 31.2874 43.6841 28.468 35.4531 28.2861C41.6832 24.2388 48.6864 22.5562 54.871 23.6931C54.9164 23.6931 54.9619 23.6931 55.0074 23.6931C55.0074 23.7386 55.0529 23.7386 55.0529 23.7841C58.0542 27.2856 59.7368 31.4693 60.1461 35.7895ZM53.3248 54.2069L41.8196 40.4734C41.3194 39.8822 40.4554 39.8368 39.9097 40.2915C39.3185 40.7917 39.273 41.6558 39.7278 42.2015L51.233 55.9349C46.8674 59.1637 41.5013 60.7098 36.0443 60.2096C30.1325 59.7094 24.721 56.8899 20.9011 52.3424C20.9011 52.2969 20.8556 52.2969 20.8556 52.2515C20.8556 52.206 20.8556 52.115 20.8556 52.0696C20.8556 48.5225 21.8106 44.7026 23.6296 41.0646C23.9934 40.3825 23.7205 39.5639 23.0384 39.2456C22.3563 38.9273 21.5377 39.1546 21.2194 39.8368C19.7642 42.7472 18.8092 45.703 18.4 48.6589C16.3081 44.839 15.3986 40.5189 15.8079 36.1078C16.3081 30.196 19.1276 24.7845 23.6751 20.9646C27.8588 17.5085 32.9065 15.7804 37.9997 15.7804C42.9565 15.7804 47.8223 17.4175 51.8696 20.6008C44.6846 20.3734 36.9538 23.1929 30.4963 28.5135C26.449 29.0137 22.6746 30.2415 19.2185 32.1969C18.5819 32.5607 18.309 33.3793 18.7183 34.0614C19.0821 34.6981 19.9006 34.9709 20.5828 34.5616C23.857 32.7426 27.4495 31.5603 31.2694 31.151C41.4558 30.0141 53.5067 34.2888 60.2825 39.1092C59.9642 44.7026 57.645 50.1596 53.3248 54.2069Z" fill="#090909"/>
<path d="M27.8133 27.3311C27.404 27.3311 27.0402 27.1492 26.7674 26.8309L24.6755 24.2842C24.2208 23.6931 24.2663 22.829 24.8574 22.3743C25.4486 21.9195 26.3126 21.965 26.7674 22.5562L28.8593 25.1028C29.314 25.694 29.2685 26.558 28.6774 27.0128C28.4045 27.2401 28.1316 27.3311 27.8133 27.3311Z" fill="#090909"/>
<path d="M33.6466 32.9557C35.5704 31.3412 35.8213 28.4729 34.2068 26.549C32.5924 24.6251 29.724 24.3742 27.8001 25.9887C25.8763 27.6031 25.6254 30.4715 27.2399 32.3954C28.8543 34.3193 31.7227 34.5701 33.6466 32.9557Z" fill="white"/>
<path d="M30.7237 35.3801C30.5418 35.3801 30.3599 35.3801 30.178 35.3346C28.5863 35.1982 27.1766 34.4706 26.1761 33.2427C25.1757 32.0149 24.6755 30.5142 24.8119 28.9226C24.9483 27.331 25.6759 25.9212 26.9037 24.9208C28.1316 23.9203 29.6322 23.4201 31.2239 23.5565C32.8155 23.693 34.2252 24.4206 35.2257 25.6484C37.3175 28.1495 36.9992 31.8785 34.4981 33.9703C33.4522 34.8798 32.1334 35.3801 30.7237 35.3801ZM30.7237 26.285C29.9961 26.285 29.2684 26.5579 28.6773 27.0126C28.0406 27.5584 27.6313 28.3314 27.5404 29.1955C27.4494 30.0595 27.7223 30.878 28.268 31.5147C29.4049 32.8789 31.4058 33.0154 32.77 31.924C34.1343 30.7871 34.2707 28.7862 33.1793 27.4219C32.6336 26.7853 31.8605 26.376 30.9965 26.285C30.9056 26.285 30.8146 26.285 30.7237 26.285Z" fill="#090909"/>
</g>
<defs>
<clipPath id="clip0_1_142">
<rect width="76" height="76" fill="white" transform="translate(0 0.0625)"/>
</clipPath>
</defs>
</svg>
