<svg width="76" height="77" viewBox="0 0 76 77" fill="none" xmlns="http://www.w3.org/2000/svg">
<g clip-path="url(#clip0_1_126)">
<path d="M38 76.0625C58.9868 76.0625 76 59.0493 76 38.0625C76 17.0757 58.9868 0.0625 38 0.0625C17.0132 0.0625 0 17.0757 0 38.0625C0 59.0493 17.0132 76.0625 38 76.0625Z" fill="#FFF3E0"/>
<path d="M40.4454 38.3247C40.1912 38.5826 39.8882 38.7873 39.5541 38.9271C39.22 39.0668 38.8615 39.1388 38.4994 39.1388C38.1372 39.1388 37.7787 39.0668 37.4446 38.9271C37.1106 38.7873 36.8076 38.5826 36.5533 38.3247L26.8521 28.4851C25.8359 27.5077 25.1617 26.2289 24.9293 24.8383C24.6969 23.4477 24.9188 22.0192 25.562 20.7646C26.0722 19.8094 26.7971 18.9857 27.6795 18.3581C28.562 17.7305 29.578 17.3162 30.6477 17.1478C31.7173 16.9793 32.8115 17.0612 33.8442 17.3872C34.8768 17.7131 35.8197 18.2742 36.5989 19.0262L38.4994 20.8739L40.4017 19.0262C41.1808 18.2742 42.1238 17.7131 43.1564 17.3872C44.1891 17.0612 45.2832 16.9793 46.3529 17.1478C47.4226 17.3162 48.4386 17.7305 49.321 18.3581C50.2035 18.9857 50.9283 19.8094 51.4386 20.7646C52.0833 22.0202 52.3058 23.4503 52.0731 24.8425C51.8403 26.2347 51.1647 27.5147 50.1466 28.4924L40.4454 38.3247Z" fill="#FF9C08" stroke="#090909" stroke-width="3" stroke-linecap="round" stroke-linejoin="round"/>
<path d="M19.1864 49.9927L32.2572 49.7268L32.5667 59.2176C32.5667 59.2176 30.385 58.2376 28.0791 58.2376C25.7732 58.2376 23.2305 59.5271 23.2305 59.5271L19.1864 49.9927Z" fill="white"/>
<path d="M23.4665 58.0625L19.7967 53.7239C18.6336 52.27 18 50.4636 18 48.6018V39.1776C18 38.4527 18.288 37.7575 18.8005 37.2449C19.3131 36.7323 20.0083 36.4443 20.7332 36.4443C21.4581 36.4443 22.1534 36.7323 22.6659 37.2449C23.1785 37.7575 23.4665 38.4527 23.4665 39.1776V46.0107" fill="white"/>
<path d="M23.4665 58.0625L19.7967 53.7239C18.6336 52.27 18 50.4636 18 48.6018V39.1776C18 38.4527 18.288 37.7575 18.8005 37.2449C19.3131 36.7323 20.0083 36.4443 20.7332 36.4443C21.4581 36.4443 22.1534 36.7323 22.6659 37.2449C23.1785 37.7575 23.4665 38.4527 23.4665 39.1776V46.0107" stroke="#090909" stroke-width="3" stroke-linecap="round" stroke-linejoin="round"/>
<path d="M31.6662 58.0625V52.596C31.667 50.9745 31.1869 49.3893 30.2869 48.0406L28.2059 44.9247C28.0276 44.6293 27.7913 44.3732 27.5112 44.1719C27.2311 43.9705 26.913 43.828 26.5763 43.7531C26.2395 43.6781 25.8911 43.6723 25.552 43.7358C25.2129 43.7994 24.8903 43.9311 24.6035 44.1229C24.0889 44.468 23.7174 44.9885 23.5585 45.5874C23.3996 46.1862 23.464 46.8225 23.7398 47.3773L26.2034 51.4772" fill="white"/>
<path d="M31.6662 58.0625V52.596C31.667 50.9745 31.1869 49.3893 30.2869 48.0406L28.2059 44.9247C28.0276 44.6293 27.7913 44.3732 27.5112 44.1719C27.2311 43.9705 26.913 43.828 26.5763 43.7531C26.2395 43.6781 25.8911 43.6723 25.552 43.7358C25.2129 43.7994 24.8903 43.9311 24.6035 44.1229C24.0889 44.468 23.7174 44.9885 23.5585 45.5874C23.3996 46.1862 23.464 46.8225 23.7398 47.3773L26.2034 51.4772" stroke="#090909" stroke-width="3" stroke-linecap="round" stroke-linejoin="round"/>
<path d="M53.5322 58.0625L57.2021 53.7239C58.3651 52.27 58.9987 50.4636 58.9987 48.6018V39.1776C58.9987 38.4527 58.7108 37.7575 58.1982 37.2449C57.6856 36.7323 56.9904 36.4443 56.2655 36.4443C55.5406 36.4443 54.8454 36.7323 54.3328 37.2449C53.8202 37.7575 53.5322 38.4527 53.5322 39.1776V46.0107" fill="white"/>
<path d="M53.5322 58.0625L57.2021 53.7239C58.3651 52.27 58.9987 50.4636 58.9987 48.6018V39.1776C58.9987 38.4527 58.7108 37.7575 58.1982 37.2449C57.6856 36.7323 56.9904 36.4443 56.2655 36.4443C55.5406 36.4443 54.8454 36.7323 54.3328 37.2449C53.8202 37.7575 53.5322 38.4527 53.5322 39.1776V46.0107" stroke="#090909" stroke-width="3" stroke-linecap="round" stroke-linejoin="round"/>
<path d="M45.3325 58.0624V52.5959C45.3318 50.9744 45.8118 49.3891 46.7119 48.0405L48.7928 44.9209C48.9704 44.6248 49.2062 44.3679 49.4859 44.1656C49.7657 43.9633 50.0836 43.82 50.4204 43.7442C50.7572 43.6683 51.1059 43.6617 51.4453 43.7246C51.7848 43.7875 52.1079 43.9186 52.3952 44.11C52.9127 44.4548 53.2864 44.9768 53.4462 45.5777C53.6059 46.1787 53.5406 46.8173 53.2626 47.3735L50.799 51.4734" fill="white"/>
<path d="M45.3325 58.0624V52.5959C45.3318 50.9744 45.8118 49.3891 46.7119 48.0405L48.7928 44.9209C48.9704 44.6248 49.2062 44.3679 49.4859 44.1656C49.7657 43.9633 50.0836 43.82 50.4204 43.7442C50.7572 43.6683 51.1059 43.6617 51.4453 43.7246C51.7848 43.7875 52.1079 43.9186 52.3952 44.11C52.9127 44.4548 53.2864 44.9768 53.4462 45.5777C53.6059 46.1787 53.5406 46.8173 53.2626 47.3735L50.799 51.4734" stroke="#090909" stroke-width="3" stroke-linecap="round" stroke-linejoin="round"/>
</g>
<defs>
<clipPath id="clip0_1_126">
<rect width="76" height="76" fill="white" transform="translate(0 0.0625)"/>
</clipPath>
</defs>
</svg>
