<svg width="76" height="77" viewBox="0 0 76 77" fill="none" xmlns="http://www.w3.org/2000/svg">
<g clip-path="url(#clip0_1_116)">
<path d="M38 76.0625C58.9868 76.0625 76 59.0493 76 38.0625C76 17.0757 58.9868 0.0625 38 0.0625C17.0132 0.0625 0 17.0757 0 38.0625C0 59.0493 17.0132 76.0625 38 76.0625Z" fill="#FFF3E0"/>
<path d="M45.295 22.3884C45.2924 22.3884 45.2898 22.3884 45.2871 22.3884C45.2861 22.3884 45.285 22.3884 45.284 22.3884C45.2829 22.3884 45.2819 22.3884 45.2808 22.3884C44.6755 22.3895 44.0707 22.4425 43.4754 22.5376C43.0522 22.6074 42.6364 22.7014 42.2295 22.8174C46.8332 24.1393 50.23 28.227 50.23 33.151C50.23 36.511 48.602 37.8235 46.135 41.4465L37 53.206L52.33 41.446C54.7975 39.451 56.425 36.511 56.425 33.151C56.425 27.166 51.385 22.3884 45.295 22.3884Z" fill="#FF9C08"/>
<path d="M28.705 22.3884C32.0649 22.3884 35.0575 23.8059 37 26.0635C39.0475 23.8059 42.0399 22.3884 45.2949 22.3884C51.3854 22.3884 56.4249 27.166 56.4249 33.151C56.4249 36.511 54.85 39.504 52.33 41.4465L37 53.206L21.9325 41.656C19.255 39.661 17.575 36.5635 17.575 33.151C17.575 27.2185 22.51 22.3884 28.705 22.3884Z" fill="#FF9C08"/>
<path d="M28.7048 25.5908C24.3998 25.5908 20.9348 29.0033 20.9348 33.1503C20.9348 34.0428 21.6173 34.7253 22.5098 34.7253C23.4023 34.7253 24.0848 34.0428 24.0848 33.1503C24.0848 30.7353 26.1848 28.7408 28.7048 28.7408C29.5973 28.7408 30.2798 28.0583 30.2798 27.1658C30.2798 26.2733 29.5973 25.5908 28.7048 25.5908Z" fill="white"/>
<path d="M37 54.781C36.685 54.781 36.3175 54.676 36.055 54.466L20.9875 42.916C17.8375 40.606 16 37.036 16 33.151C16 26.326 21.7225 20.8135 28.705 20.8135C31.8025 20.8135 34.795 21.916 37 23.8585C39.31 21.916 42.25 20.8135 45.295 20.8135C52.2775 20.8135 58 26.326 58 33.151C58 36.826 56.32 40.3435 53.3275 42.706L37.945 54.466C37.6825 54.676 37.315 54.781 37 54.781ZM28.705 23.9635C23.455 23.9635 19.15 28.111 19.15 33.151C19.15 36.0385 20.515 38.6635 22.8775 40.396L37 51.2635L51.385 40.2385C53.59 38.506 54.85 35.9335 54.85 33.2035C54.85 28.111 50.545 24.016 45.295 24.016C42.565 24.016 39.9925 25.171 38.155 27.166C37.84 27.481 37.42 27.691 37 27.691C36.5275 27.691 36.1075 27.481 35.845 27.166C34.06 25.1185 31.4875 23.9635 28.705 23.9635Z" fill="#090909"/>
</g>
<defs>
<clipPath id="clip0_1_116">
<rect width="76" height="76" fill="white" transform="translate(0 0.0625)"/>
</clipPath>
</defs>
</svg>
